<svg xmlns="http://www.w3.org/2000/svg" width="31.96" height="34.954" viewBox="0 0 31.96 34.954">
  <path id="Icon_map-book-store" data-name="Icon map-book-store" d="M26.486,25.2V3.941a2.508,2.508,0,0,0-2.5-2.5h-15a2.508,2.508,0,0,0-2.5,2.5V27.7a2.508,2.508,0,0,0,2.5,2.5h15c1.162,0,2.5,0,2.5-1.25v-.625H9.606a1.254,1.254,0,0,1-1.25-1.25V25.2h18.13ZM9.606,6.441a.627.627,0,0,1,.625-.625h12.5a.627.627,0,0,1,.625.625v1.25a.627.627,0,0,1-.625.625h-12.5a.627.627,0,0,1-.625-.625V6.441Zm0,5a.627.627,0,0,1,.625-.625h12.5a.627.627,0,0,1,.625.625v1.25a.627.627,0,0,1-.625.625h-12.5a.627.627,0,0,1-.625-.625Z" transform="translate(-6.296 12.407) rotate(-31)" fill="#fff"/>
</svg>
