<svg xmlns="http://www.w3.org/2000/svg" width="25.064" height="25.064" viewBox="0 0 25.064 25.064">
  <path id="Icon_ionic-md-settings" data-name="Icon ionic-md-settings" d="M25.424,17.16a7.837,7.837,0,0,0,.064-1.253c0-.439-.064-.814-.064-1.253l2.691-2.068a.576.576,0,0,0,.128-.814L25.68,7.448a.624.624,0,0,0-.769-.251l-3.2,1.253A9.328,9.328,0,0,0,19.528,7.2l-.449-3.321a.687.687,0,0,0-.641-.5H13.311a.687.687,0,0,0-.641.5L12.158,7.2A10.853,10.853,0,0,0,9.978,8.45L6.774,7.2A.6.6,0,0,0,6,7.448L3.441,11.772a.757.757,0,0,0,.128.814l2.756,2.068c0,.439-.064.814-.064,1.253s.064.814.064,1.253L3.634,19.228a.576.576,0,0,0-.128.814l2.564,4.324a.624.624,0,0,0,.769.251l3.2-1.253a9.327,9.327,0,0,0,2.179,1.253l.513,3.321a.621.621,0,0,0,.641.5H18.5a.687.687,0,0,0,.641-.5l.513-3.321a10.846,10.846,0,0,0,2.179-1.253l3.2,1.253a.6.6,0,0,0,.769-.251l2.564-4.324a.756.756,0,0,0-.128-.814Zm-9.549,3.133a4.387,4.387,0,1,1,4.486-4.386A4.409,4.409,0,0,1,15.875,20.293Z" transform="translate(-3.375 -3.375)" fill="#fff"/>
</svg>
